<svg width="140" height="52" viewBox="0 0 140 52" fill="none" xmlns="http://www.w3.org/2000/svg">
<path d="M13.9005 33.7329C12.2524 33.7329 10.8139 33.3837 9.5848 32.6854C8.38367 31.9591 7.48981 30.9954 6.90321 29.7943V33.272H0.827728V1.4281H6.90321V14.7942C7.54567 13.6489 8.48144 12.7131 9.7105 11.9869C10.9675 11.2327 12.3642 10.8556 13.9005 10.8556C16.6659 10.8556 18.9285 11.8193 20.6883 13.7467C22.5319 15.7579 23.4537 18.5372 23.4537 22.0847V22.4199C23.4537 25.9395 22.5458 28.7189 20.7302 30.758C18.9983 32.7413 16.7217 33.7329 13.9005 33.7329ZM12.0988 28.9982C13.7748 28.9982 15.0597 28.4535 15.9536 27.3641C16.8474 26.2468 17.2944 24.6127 17.2944 22.4618V22.1266C17.2944 19.9478 16.8195 18.2998 15.8698 17.1825C14.9201 16.0651 13.6491 15.5065 12.0569 15.5065C10.4088 15.5065 9.09597 16.0791 8.11831 17.2243C7.16858 18.3417 6.69371 19.9758 6.69371 22.1266V22.4618C6.69371 24.6127 7.16858 26.2468 8.11831 27.3641C9.06804 28.4535 10.3949 28.9982 12.0988 28.9982Z" fill="#3A4250"/>
<path d="M95.1024 1.4281H101.178V20.6182L108.217 11.3584H114.67L106.709 21.3305L115.298 33.272H108.427L101.178 22.9227V33.272H95.1024V1.4281Z" fill="#3A4250"/>
<path d="M125.496 31.0513L116.781 11.3584H123.317L128.638 24.5149L133.541 11.3584H139.365L127.507 40.7302H121.641L125.496 31.0513Z" fill="#3A4250"/>
<g filter="url(#filter0_dii_457_7218)">
<rect x="29.3197" y="2.69434" width="59.3582" height="36.6624" rx="13.9666" fill="url(#paint0_linear_457_7218)"/>
</g>
<path d="M47.7137 27.3782C49.4176 27.3782 50.7305 26.7916 51.6523 25.6184C52.602 24.4452 53.0769 22.8111 53.0769 20.7161V20.4228C53.0769 18.3278 52.602 16.6937 51.6523 15.5205C50.7305 14.3194 49.4176 13.7188 47.7137 13.7188C46.0377 13.7188 44.7248 14.3054 43.7751 15.4786C42.8254 16.6239 42.3505 18.244 42.3505 20.339V20.6742C42.3505 22.7972 42.8114 24.4452 43.7332 25.6184C44.655 26.7916 45.9818 27.3782 47.7137 27.3782ZM47.6718 31.9872C44.3198 31.9872 41.5823 30.9676 39.4594 28.9285C37.2527 26.8894 36.1493 24.1798 36.1493 20.7999V20.4647C36.1493 17.0848 37.2527 14.3334 39.4594 12.2105C41.6103 10.1434 44.3617 9.10986 47.7137 9.10986C51.0936 9.10986 53.845 10.1294 55.968 12.1686C58.1468 14.2915 59.2362 17.015 59.2362 20.339V20.6742C59.2362 24.0541 58.1328 26.8056 55.9261 28.9285C53.8031 30.9676 51.0517 31.9872 47.6718 31.9872Z" fill="white"/>
<path d="M71.0909 27.3782C72.7948 27.3782 74.1077 26.7916 75.0295 25.6184C75.9792 24.4452 76.4541 22.8111 76.4541 20.7161V20.4228C76.4541 18.3278 75.9792 16.6937 75.0295 15.5205C74.1077 14.3194 72.7948 13.7188 71.0909 13.7188C69.4149 13.7188 68.102 14.3054 67.1523 15.4786C66.2026 16.6239 65.7277 18.244 65.7277 20.339V20.6742C65.7277 22.7972 66.1886 24.4452 67.1104 25.6184C68.0322 26.7916 69.359 27.3782 71.0909 27.3782ZM71.049 31.9872C67.697 31.9872 64.9595 30.9676 62.8366 28.9285C60.6299 26.8894 59.5265 24.1798 59.5265 20.7999V20.4647C59.5265 17.0848 60.6299 14.3334 62.8366 12.2105C64.9875 10.1434 67.7389 9.10986 71.0909 9.10986C74.4708 9.10986 77.2222 10.1294 79.3451 12.1686C81.5239 14.2915 82.6133 17.015 82.6133 20.339V20.6742C82.6133 24.0541 81.51 26.8056 79.3032 28.9285C77.1803 30.9676 74.4289 31.9872 71.049 31.9872Z" fill="white"/>
<defs>
<filter id="filter0_dii_457_7218" x="22.3363" y="-0.79732" width="73.3248" height="52.3748" filterUnits="userSpaceOnUse" color-interpolation-filters="sRGB">
<feFlood flood-opacity="0" result="BackgroundImageFix"/>
<feColorMatrix in="SourceAlpha" type="matrix" values="0 0 0 0 0 0 0 0 0 0 0 0 0 0 0 0 0 0 127 0" result="hardAlpha"/>
<feOffset dy="5.23748"/>
<feGaussianBlur stdDeviation="3.49166"/>
<feColorMatrix type="matrix" values="0 0 0 0 0.0950052 0 0 0 0 0.164586 0 0 0 0 0.36836 0 0 0 0.15 0"/>
<feBlend mode="normal" in2="BackgroundImageFix" result="effect1_dropShadow_457_7218"/>
<feBlend mode="normal" in="SourceGraphic" in2="effect1_dropShadow_457_7218" result="shape"/>
<feColorMatrix in="SourceAlpha" type="matrix" values="0 0 0 0 0 0 0 0 0 0 0 0 0 0 0 0 0 0 127 0" result="hardAlpha"/>
<feOffset dy="1.74583"/>
<feGaussianBlur stdDeviation="1.74583"/>
<feComposite in2="hardAlpha" operator="arithmetic" k2="-1" k3="1"/>
<feColorMatrix type="matrix" values="0 0 0 0 0.782914 0 0 0 0 0.836722 0 0 0 0 1 0 0 0 1 0"/>
<feBlend mode="normal" in2="shape" result="effect2_innerShadow_457_7218"/>
<feColorMatrix in="SourceAlpha" type="matrix" values="0 0 0 0 0 0 0 0 0 0 0 0 0 0 0 0 0 0 127 0" result="hardAlpha"/>
<feOffset dy="-3.49166"/>
<feGaussianBlur stdDeviation="2.61874"/>
<feComposite in2="hardAlpha" operator="arithmetic" k2="-1" k3="1"/>
<feColorMatrix type="matrix" values="0 0 0 0 0.085677 0 0 0 0 0.213554 0 0 0 0 0.589193 0 0 0 0.5 0"/>
<feBlend mode="normal" in2="effect2_innerShadow_457_7218" result="effect3_innerShadow_457_7218"/>
</filter>
<linearGradient id="paint0_linear_457_7218" x1="69.8811" y1="54.0217" x2="65.6931" y2="-2.68836" gradientUnits="userSpaceOnUse">
<stop stop-color="#2152E3"/>
<stop offset="0.0521763" stop-color="#1D4FE2"/>
<stop offset="0.867114" stop-color="#8FACFF"/>
</linearGradient>
</defs>
</svg>
