<svg width="82" height="35" viewBox="0 0 82 35" fill="none" xmlns="http://www.w3.org/2000/svg">
<path d="M9.168 25.264C8.224 25.264 7.4 25.064 6.696 24.664C6.008 24.248 5.496 23.696 5.16 23.008V25H1.68V6.76H5.16V14.416C5.528 13.76 6.064 13.224 6.768 12.808C7.488 12.376 8.288 12.16 9.168 12.16C10.752 12.16 12.048 12.712 13.056 13.816C14.112 14.968 14.64 16.56 14.64 18.592V18.784C14.64 20.8 14.12 22.392 13.08 23.56C12.088 24.696 10.784 25.264 9.168 25.264ZM8.136 22.552C9.096 22.552 9.832 22.24 10.344 21.616C10.856 20.976 11.112 20.04 11.112 18.808V18.616C11.112 17.368 10.84 16.424 10.296 15.784C9.752 15.144 9.024 14.824 8.112 14.824C7.168 14.824 6.416 15.152 5.856 15.808C5.312 16.448 5.04 17.384 5.04 18.616V18.808C5.04 20.04 5.312 20.976 5.856 21.616C6.4 22.24 7.16 22.552 8.136 22.552Z" fill="#3A4250"/>
<path d="M55.68 6.76H59.16V17.752L63.192 12.448H66.888L62.328 18.16L67.248 25H63.312L59.16 19.072V25H55.68V6.76ZM73.0892 23.728L68.0972 12.448H71.8412L74.8892 19.984L77.6972 12.448H81.0332L74.2412 29.272H70.8812L73.0892 23.728Z" fill="#3A4250"/>
<g filter="url(#filter0_dii_4371_1559)">
<rect x="18" y="7" width="34" height="21" rx="8" fill="url(#paint0_linear_4371_1559)"/>
</g>
<path d="M28.536 21.624C29.512 21.624 30.264 21.288 30.792 20.616C31.336 19.944 31.608 19.008 31.608 17.808V17.64C31.608 16.44 31.336 15.504 30.792 14.832C30.264 14.144 29.512 13.8 28.536 13.8C27.576 13.8 26.824 14.136 26.28 14.808C25.736 15.464 25.464 16.392 25.464 17.592V17.784C25.464 19 25.728 19.944 26.256 20.616C26.784 21.288 27.544 21.624 28.536 21.624ZM28.512 24.264C26.592 24.264 25.024 23.68 23.808 22.512C22.544 21.344 21.912 19.792 21.912 17.856V17.664C21.912 15.728 22.544 14.152 23.808 12.936C25.04 11.752 26.616 11.16 28.536 11.16C30.472 11.16 32.048 11.744 33.264 12.912C34.512 14.128 35.136 15.688 35.136 17.592V17.784C35.136 19.72 34.504 21.296 33.24 22.512C32.024 23.68 30.448 24.264 28.512 24.264ZM41.9263 21.624C42.9023 21.624 43.6543 21.288 44.1823 20.616C44.7263 19.944 44.9983 19.008 44.9983 17.808V17.64C44.9983 16.44 44.7263 15.504 44.1823 14.832C43.6543 14.144 42.9023 13.8 41.9263 13.8C40.9663 13.8 40.2143 14.136 39.6703 14.808C39.1263 15.464 38.8543 16.392 38.8543 17.592V17.784C38.8543 19 39.1183 19.944 39.6463 20.616C40.1743 21.288 40.9343 21.624 41.9263 21.624ZM41.9023 24.264C39.9823 24.264 38.4143 23.68 37.1983 22.512C35.9343 21.344 35.3023 19.792 35.3023 17.856V17.664C35.3023 15.728 35.9343 14.152 37.1983 12.936C38.4303 11.752 40.0063 11.16 41.9263 11.16C43.8623 11.16 45.4383 11.744 46.6543 12.912C47.9023 14.128 48.5263 15.688 48.5263 17.592V17.784C48.5263 19.72 47.8943 21.296 46.6303 22.512C45.4143 23.68 43.8383 24.264 41.9023 24.264Z" fill="white"/>
<defs>
<filter id="filter0_dii_4371_1559" x="14" y="5" width="42" height="30" filterUnits="userSpaceOnUse" color-interpolation-filters="sRGB">
<feFlood flood-opacity="0" result="BackgroundImageFix"/>
<feColorMatrix in="SourceAlpha" type="matrix" values="0 0 0 0 0 0 0 0 0 0 0 0 0 0 0 0 0 0 127 0" result="hardAlpha"/>
<feOffset dy="3"/>
<feGaussianBlur stdDeviation="2"/>
<feColorMatrix type="matrix" values="0 0 0 0 0.0950052 0 0 0 0 0.164586 0 0 0 0 0.36836 0 0 0 0.15 0"/>
<feBlend mode="normal" in2="BackgroundImageFix" result="effect1_dropShadow_4371_1559"/>
<feBlend mode="normal" in="SourceGraphic" in2="effect1_dropShadow_4371_1559" result="shape"/>
<feColorMatrix in="SourceAlpha" type="matrix" values="0 0 0 0 0 0 0 0 0 0 0 0 0 0 0 0 0 0 127 0" result="hardAlpha"/>
<feOffset dy="1"/>
<feGaussianBlur stdDeviation="1"/>
<feComposite in2="hardAlpha" operator="arithmetic" k2="-1" k3="1"/>
<feColorMatrix type="matrix" values="0 0 0 0 0.782914 0 0 0 0 0.836722 0 0 0 0 1 0 0 0 1 0"/>
<feBlend mode="normal" in2="shape" result="effect2_innerShadow_4371_1559"/>
<feColorMatrix in="SourceAlpha" type="matrix" values="0 0 0 0 0 0 0 0 0 0 0 0 0 0 0 0 0 0 127 0" result="hardAlpha"/>
<feOffset dy="-2"/>
<feGaussianBlur stdDeviation="1.5"/>
<feComposite in2="hardAlpha" operator="arithmetic" k2="-1" k3="1"/>
<feColorMatrix type="matrix" values="0 0 0 0 0.085677 0 0 0 0 0.213554 0 0 0 0 0.589193 0 0 0 0.5 0"/>
<feBlend mode="normal" in2="effect2_innerShadow_4371_1559" result="effect3_innerShadow_4371_1559"/>
</filter>
<linearGradient id="paint0_linear_4371_1559" x1="41.2333" y1="36.4" x2="38.8345" y2="3.91683" gradientUnits="userSpaceOnUse">
<stop stop-color="#2152E3"/>
<stop offset="0.0521763" stop-color="#1D4FE2"/>
<stop offset="0.867114" stop-color="#8FACFF"/>
</linearGradient>
</defs>
</svg>
